<svg xmlns="http://www.w3.org/2000/svg" fill="none" viewBox="0 0 40 41" height="41" width="40">
<path fill-opacity="0.32" fill="#686B82" d="M0 20.4414C0 9.39571 8.95431 0.441406 20 0.441406C31.0457 0.441406 40 9.39571 40 20.4414C40 31.4871 31.0457 40.4414 20 40.4414C8.95431 40.4414 0 31.4871 0 20.4414Z"></path>
<path fill="#9497A9" d="M13.4828 14.1914C12.4513 14.1914 11.75 14.9292 11.75 15.6814V25.2014C11.75 25.9536 12.4513 26.6914 13.4828 26.6914H26.5172C27.5487 26.6914 28.25 25.9536 28.25 25.2014V15.6814C28.25 14.9292 27.5487 14.1914 26.5172 14.1914H13.4828ZM10.25 15.6814C10.25 13.9593 11.7718 12.6914 13.4828 12.6914H26.5172C28.2282 12.6914 29.75 13.9593 29.75 15.6814V25.2014C29.75 26.9235 28.2282 28.1914 26.5172 28.1914H13.4828C11.7718 28.1914 10.25 26.9235 10.25 25.2014V15.6814Z" clip-rule="evenodd" fill-rule="evenodd"></path>
<path fill="#9497A9" d="M11.4356 13.9475C11.7083 13.6358 12.1822 13.6042 12.4939 13.877L19.1769 19.7246C19.6482 20.137 20.3518 20.137 20.8231 19.7246L27.5061 13.877C27.8179 13.6042 28.2917 13.6358 28.5644 13.9475C28.8372 14.2593 28.8056 14.7331 28.4939 15.0058L21.8109 20.8535C20.7741 21.7607 19.2259 21.7607 18.1891 20.8535L11.5061 15.0058C11.1944 14.7331 11.1628 14.2593 11.4356 13.9475Z" clip-rule="evenodd" fill-rule="evenodd"></path>
</svg>
