<svg xmlns="http://www.w3.org/2000/svg" fill="none" viewBox="0 0 200 200" height="200" width="200">
<g clip-path="url(#clip0_2893_20255)">
<path fill="url(#paint0_linear_2893_20255)" d="M71.6322 71.5437C76.5074 66.7016 83.2253 63.7149 90.6271 63.7347L110.274 63.7873L-14.5552 187.764L-29.8656 172.348L71.6322 71.5437Z"></path>
<path fill="url(#paint1_linear_2893_20255)" d="M93.6197 66.3116L112.169 66.3415L-12.3372 189.997L-24.5 177.751L83.5031 70.4855C86.1023 67.9039 89.6804 66.3081 93.6197 66.3116Z"></path>
<path fill="url(#paint2_linear_2893_20255)" d="M121.005 73.2092L111.037 63.1444L3.28439 169.861L13.2524 179.926L121.005 73.2092Z"></path>
<path fill="#AEB4BC" d="M96.4429 63.7941L101.733 58.5405L110.817 67.6875L105.527 72.9411L96.4429 63.7941Z"></path>
<path fill="#AEB4BC" d="M96.3999 63.7513L101.69 58.4977L110.817 67.6876L105.527 72.9412L96.3999 63.7513Z"></path>
<path fill="#929AA5" d="M151.471 49.1561L141.409 39.4971L121.254 39.4163L101.476 58.7941L122.734 79.2484L151.471 49.1561Z"></path>
<path fill="#E8A37D" d="M74.5199 116.032L74.4281 135.724L88.7679 121.384L78.9688 111.585L74.5199 116.032Z"></path>
<path fill="#0B0E11" d="M63.9521 116.031V135.634L63.9521 146.051L74.5183 135.634V116.031H63.9521Z"></path>
<path fill="url(#paint3_linear_2893_20255)" d="M144.839 65.3077L84.3164 125.83L74.5182 116.032L135.041 55.5095L144.839 65.3077Z" clip-rule="evenodd" fill-rule="evenodd"></path>
<path fill="url(#paint4_linear_2893_20255)" d="M153.801 72.4457C163.625 72.8889 168.219 84.8119 161.233 91.7323L134.727 117.988L124.975 108.144L147.306 86.0235L134.01 85.4237C123.017 84.9278 117.96 71.5143 125.889 63.8839L135.006 55.1102L144.615 65.0948L137.729 71.7206L153.801 72.4457Z" clip-rule="evenodd" fill-rule="evenodd"></path>
<path fill="#E8A37D" d="M162.372 62.0717L192.22 32.7664L183.584 23.9704L153.736 53.2756C151.307 55.6604 151.271 59.5627 153.656 61.9917C156.04 64.4206 159.943 64.4564 162.372 62.0717Z" clip-rule="evenodd" fill-rule="evenodd"></path>
<path fill="#0B0E11" d="M162.371 62.0719L175.335 49.3418L166.699 40.5462L153.734 53.2763C151.305 55.6612 151.27 59.5635 153.655 61.9924C156.04 64.4212 159.942 64.4568 162.371 62.0719Z" clip-rule="evenodd" fill-rule="evenodd"></path>
<path fill="#E8A37D" d="M187.213 24.2679C189.119 22.428 192.156 22.4816 193.995 24.3876C195.835 26.2936 195.782 29.3302 193.876 31.1701L189.935 34.974C188.8 36.0701 186.991 36.0381 185.895 34.9027L181.217 30.0563L187.213 24.2679Z"></path>
<path fill="#E8A37D" d="M186.972 22.7453C187.592 23.3543 187.6 24.3502 186.991 24.9696L182.366 29.6733C181.757 30.2927 180.761 30.3011 180.142 29.6921C179.522 29.0831 179.514 28.0872 180.123 27.4678L184.748 22.7641C185.357 22.1447 186.353 22.1363 186.972 22.7453Z" clip-rule="evenodd" fill-rule="evenodd"></path>
<path fill="#0B0E11" d="M140.253 49.5489L128.098 61.7043L145.43 79.0362L163.743 60.7232L152.568 49.5489C149.168 46.1481 143.654 46.1481 140.253 49.5489Z"></path>
<path fill="#E8A37D" d="M163.108 39.5021C163.108 43.7692 159.649 47.2284 155.382 47.2284C151.115 47.2284 147.656 43.7692 147.656 39.5021C147.656 35.2349 151.115 31.7758 155.382 31.7758C159.649 31.7758 163.108 35.2349 163.108 39.5021Z"></path>
<mask height="17" width="17" y="31" x="147" maskUnits="userSpaceOnUse" style="mask-type:alpha" id="mask0_2893_20255">
<path fill="#FF7E0D" d="M162.845 37.502C163.949 41.6237 161.503 45.8603 157.381 46.9648C153.26 48.0692 149.023 45.6232 147.919 41.5014C146.814 37.3797 149.26 33.1431 153.382 32.0387C157.504 30.9343 161.74 33.3803 162.845 37.502Z"></path>
</mask>
<g mask="url(#mask0_2893_20255)">
<path fill="#0B0E11" d="M158.455 35.569C163.95 34.0964 167.212 28.4476 165.739 22.952C164.267 17.4563 158.618 14.195 153.122 15.6675C147.627 17.1401 144.365 22.7889 145.838 28.2845C146.18 29.5632 146.749 30.7209 147.489 31.7261C146.463 31.5685 145.388 31.6165 144.321 31.9024C140.199 33.0068 137.753 37.2435 138.858 41.3652C139.962 45.4869 144.199 47.9329 148.32 46.8285C152.442 45.7241 154.888 41.4875 153.784 37.3658C153.609 36.7158 153.357 36.1076 153.04 35.5483C154.754 36.0243 156.613 36.0625 158.455 35.569Z" clip-rule="evenodd" fill-rule="evenodd"></path>
</g>
<path fill="#E8A37D" d="M124.975 108.147L124.863 127.871L139.203 113.531L129.42 103.748L124.975 108.147Z"></path>
<path fill="url(#paint5_linear_2893_20255)" d="M153.802 72.4458C163.626 72.8891 168.22 84.8121 161.234 91.7325L134.728 117.989L124.976 108.144L147.307 86.0236L134.677 85.4536L135.302 71.6109L153.802 72.4458Z" clip-rule="evenodd" fill-rule="evenodd"></path>
<path fill="url(#paint6_linear_2893_20255)" d="M153.801 72.4458C163.625 72.8891 168.219 84.8121 161.232 91.7325L134.726 117.989L124.974 108.144L147.306 86.0236L134.676 85.4536L135.3 71.6109L153.801 72.4458Z" clip-rule="evenodd" fill-rule="evenodd"></path>
<path fill="#E8A37D" d="M132.265 70.1165L121.2 59.0518C118.793 56.6448 114.891 56.6448 112.484 59.0518C110.077 61.4587 110.077 65.3612 112.484 67.7682L123.548 78.8328L132.265 70.1165Z" clip-rule="evenodd" fill-rule="evenodd"></path>
<path fill="#E8A37D" d="M132.676 74.419C134.538 76.303 134.521 79.3401 132.636 81.2025C130.752 83.0648 127.715 83.0472 125.853 81.1631L122.003 77.2679C120.893 76.1456 120.904 74.3364 122.026 73.227L126.817 68.4916L132.676 74.419Z"></path>
<path fill="#E8A37D" d="M134.492 74.5923C133.878 75.2067 132.883 75.2071 132.268 74.5931L127.602 69.9303C126.987 69.3164 126.987 68.3205 127.601 67.706C128.215 67.0916 129.211 67.0912 129.825 67.7052L134.492 72.368C135.106 72.9819 135.106 73.9778 134.492 74.5923Z" clip-rule="evenodd" fill-rule="evenodd"></path>
<path fill="#0B0E11" d="M152.705 53.1243C152.69 49.7204 149.919 46.9728 146.515 46.9875L121.179 47.097C110.355 47.1437 104.974 60.2386 112.637 67.8825L115.471 70.7091L124.176 61.9815L121.61 59.4221L146.568 59.3143C149.972 59.2996 152.72 56.5282 152.705 53.1243Z" clip-rule="evenodd" fill-rule="evenodd"></path>
<path fill="#0B0E11" d="M114.414 108.137V127.767L114.414 138.199L124.981 127.761L124.98 108.137H114.414Z"></path>
</g>
<defs>
<linearGradient gradientUnits="userSpaceOnUse" y2="66.4396" x2="107.604" y1="144.92" x1="29.1236" id="paint0_linear_2893_20255">
<stop stop-opacity="0" stop-color="#F8D33A"></stop>
<stop stop-color="#F8D33A" offset="1"></stop>
</linearGradient>
<linearGradient gradientUnits="userSpaceOnUse" y2="131.794" x2="46.6978" y1="69.0489" x1="109.443" id="paint1_linear_2893_20255">
<stop stop-color="white"></stop>
<stop stop-opacity="0" stop-color="white" offset="1"></stop>
</linearGradient>
<linearGradient gradientUnits="userSpaceOnUse" y2="172.992" x2="6.38556" y1="66.2757" x1="114.139" id="paint2_linear_2893_20255">
<stop stop-opacity="0.5" stop-color="white"></stop>
<stop stop-opacity="0" stop-color="white" offset="1"></stop>
</linearGradient>
<linearGradient gradientUnits="userSpaceOnUse" y2="120.931" x2="79.4173" y1="60.4086" x1="139.94" id="paint3_linear_2893_20255">
<stop stop-color="#F0B90B"></stop>
<stop stop-color="#F8D33A" offset="1"></stop>
</linearGradient>
<linearGradient gradientUnits="userSpaceOnUse" y2="102.315" x2="119.053" y1="67.9018" x1="153.465" id="paint4_linear_2893_20255">
<stop stop-color="#F0B90B"></stop>
<stop stop-color="#F8D33A" offset="1"></stop>
</linearGradient>
<linearGradient gradientUnits="userSpaceOnUse" y2="106.6" x2="123.339" y1="72.1874" x1="157.752" id="paint5_linear_2893_20255">
<stop stop-color="#F0B90B"></stop>
<stop stop-color="#F8D33A" offset="1"></stop>
</linearGradient>
<linearGradient gradientUnits="userSpaceOnUse" y2="106.6" x2="123.338" y1="72.1874" x1="157.751" id="paint6_linear_2893_20255">
<stop stop-color="#F0B90B"></stop>
<stop stop-color="#F8D33A" offset="1"></stop>
</linearGradient>
<clipPath id="clip0_2893_20255">
<rect fill="white" height="200" width="200"></rect>
</clipPath>
</defs>
</svg>
