<svg xmlns="http://www.w3.org/2000/svg" fill="none" viewBox="0 0 200 200" height="200" width="200">
<path fill="#F8D33A" d="M128.215 103.592L114.44 139.25C113.431 141.861 112.914 144.636 112.914 147.435V182.897H127.131V147.435C127.131 146.388 127.324 145.35 127.702 144.374L141.478 108.716L128.215 103.592Z" clip-rule="evenodd" fill-rule="evenodd"></path>
<path fill="#F0B90B" d="M134.955 104.876V110.031C134.955 110.347 134.905 110.661 134.808 110.962L127.309 134.037C125.342 140.093 127.209 146.737 132.044 150.881L155.711 171.166L164.963 160.371L141.296 140.086C140.821 139.679 140.637 139.026 140.831 138.431L148.329 115.356C148.888 113.636 149.173 111.839 149.173 110.031V104.876H134.955Z" clip-rule="evenodd" fill-rule="evenodd"></path>
<path fill="#0B0E11" d="M127.241 189.575L127.056 171.942L112.914 171.942V179.343L110.128 180.115C106.332 181.165 103.252 183.94 101.811 187.605L101.025 189.607L127.241 189.575Z"></path>
<path fill="#D9D9D9" d="M112.908 171.947H127.135V179.345H112.908V171.947Z"></path>
<path fill="#CB8C54" d="M102.374 88.496L97.2192 68.2171L108.077 65.457L113.205 85.6273L134.87 85.478C137.963 85.4567 140.489 87.9473 140.51 91.041C140.531 94.1347 138.041 96.6599 134.947 96.6812L113.17 96.8313C108.082 96.8664 103.627 93.4266 102.374 88.496Z" clip-rule="evenodd" fill-rule="evenodd"></path>
<path fill="#0B0E11" d="M114.928 85.6153L134.868 85.4776C137.962 85.4562 140.487 87.9468 140.508 91.0405C140.53 94.1342 138.039 96.6595 134.945 96.6808L115.006 96.8185L114.928 85.6153Z" clip-rule="evenodd" fill-rule="evenodd"></path>
<path fill="#CB8C54" d="M97.2359 52.2747L97.2359 68.2326L100.191 71.648L108.171 65.7551L106.007 58.0302C105.299 55.5035 103.333 53.5241 100.811 52.7995L97.7186 51.9111C97.4769 51.8417 97.2359 52.0231 97.2359 52.2747Z"></path>
<path fill="#0B0E11" d="M149.177 97.6078V110.321H125.621V97.6078C125.621 91.103 130.895 85.8299 137.399 85.8299C143.904 85.8299 149.177 91.103 149.177 97.6078Z"></path>
<path fill="#CB8C54" d="M127.225 73.6955C127.225 77.9953 130.711 81.4809 135.01 81.4809C139.31 81.4809 142.796 77.9953 142.796 73.6955C142.796 69.3957 139.31 65.9101 135.01 65.9101C130.711 65.9101 127.225 69.3957 127.225 73.6955Z"></path>
<mask height="17" width="16" y="65" x="127" maskUnits="userSpaceOnUse" style="mask-type:alpha" id="mask0_2893_20340">
<path fill="#572703" d="M127.494 71.6781C126.381 75.8313 128.845 80.1004 132.999 81.2132C137.152 82.3261 141.421 79.8614 142.534 75.7081C143.647 71.5549 141.182 67.2858 137.029 66.173C132.875 65.0601 128.606 67.5248 127.494 71.6781Z"></path>
</mask>
<g mask="url(#mask0_2893_20340)">
<path fill="#0B0E11" d="M131.918 69.7303C126.381 68.2465 123.094 62.5545 124.578 57.0168C126.062 51.4791 131.754 48.1928 137.292 49.6767C142.829 51.1605 146.116 56.8525 144.632 62.3902C144.287 63.6771 143.715 64.8424 142.97 65.8545C144.002 65.6969 145.083 65.7456 146.156 66.0331C150.31 67.146 152.774 71.415 151.662 75.5683C150.549 79.7215 146.28 82.1862 142.126 81.0734C137.973 79.9605 135.508 75.6915 136.621 71.5383C136.796 70.885 137.049 70.2736 137.368 69.7113C135.643 70.1892 133.772 70.227 131.918 69.7303Z" clip-rule="evenodd" fill-rule="evenodd"></path>
</g>
<path fill="#CB8C54" d="M129.085 91.2872C129.092 94.4994 131.702 97.0976 134.914 97.0904L160.999 97.0321C169.127 97.014 174.665 88.7883 171.622 81.2504L163.711 61.6488L152.924 66.0023L160.753 85.4003L134.888 85.458C131.676 85.4652 129.078 88.075 129.085 91.2872Z" clip-rule="evenodd" fill-rule="evenodd"></path>
<path fill="#0B0E11" d="M129.085 91.2859C129.093 94.4981 131.702 97.0963 134.915 97.0892L158.213 97.0375L158.187 85.4052L134.889 85.4568C131.677 85.464 129.078 88.0737 129.085 91.2859Z" clip-rule="evenodd" fill-rule="evenodd"></path>
<path fill="#CB8C54" d="M150.901 61.6494C151.574 61.0035 152.642 61.0248 153.288 61.6969L157.802 66.3942C158.448 67.0664 158.426 68.1348 157.754 68.7807C157.082 69.4265 156.014 69.4052 155.368 68.7331L150.854 64.0358C150.208 63.3637 150.229 62.2953 150.901 61.6494Z" clip-rule="evenodd" fill-rule="evenodd"></path>
<path fill="#935A30" d="M78.1535 90.4336C78.146 93.6458 75.536 96.2438 72.3238 96.2363L40.5146 96.1626C32.1373 96.1432 26.5993 87.4502 30.1221 79.8496L39.2658 60.1218L49.8197 65.0135L40.7735 84.5308L72.3508 84.604C75.563 84.6114 78.1609 87.2214 78.1535 90.4336Z" clip-rule="evenodd" fill-rule="evenodd"></path>
<path fill="#F8D33A" d="M78.1538 90.4345C78.1461 93.6467 75.5359 96.2445 72.3238 96.2368L43.5655 96.1682L43.5933 84.5359L72.3515 84.6045C75.5637 84.6121 78.1615 87.2223 78.1538 90.4345Z" clip-rule="evenodd" fill-rule="evenodd"></path>
<path fill="#935A30" d="M48.9683 61.3071C50.0208 58.9482 48.9618 56.1827 46.6029 55.1302C44.244 54.0777 41.4785 55.1368 40.426 57.4957L39.3202 59.9739C38.6302 61.5204 39.3245 63.3334 40.871 64.0234L46.6132 66.5855L48.9683 61.3071Z"></path>
<path fill="#935A30" d="M51.2538 61.1567C50.5817 60.5108 49.5133 60.5321 48.8674 61.2042L44.3535 65.9015C43.7077 66.5736 43.729 67.6421 44.4011 68.2879C45.0732 68.9338 46.1416 68.9125 46.7875 68.2404L51.3014 63.5431C51.9472 62.871 51.926 61.8025 51.2538 61.1567Z" clip-rule="evenodd" fill-rule="evenodd"></path>
<path fill="#935A30" d="M102.167 88.4575L109.098 68.7463L98.4802 65.0131L91.5834 84.6283L72.582 84.6283C69.4741 84.6283 66.9547 87.1477 66.9547 90.2556C66.9547 93.3634 69.4741 95.8829 72.582 95.8829L91.6852 95.8829C96.4008 95.8829 100.603 92.9062 102.167 88.4575Z" clip-rule="evenodd" fill-rule="evenodd"></path>
<path fill="#F8D33A" d="M88.6511 84.6264L72.5821 84.6283C69.4742 84.6286 66.9551 87.1483 66.9554 90.2562C66.9558 93.3641 69.4755 95.8832 72.5834 95.8829L88.6523 95.881L88.6511 84.6264Z" clip-rule="evenodd" fill-rule="evenodd"></path>
<path fill="#935A30" d="M109.148 52.498L109.148 68.7324L105.855 71.9198L97.795 67.4325L100.47 58.1504C101.197 55.6267 103.181 53.6607 105.712 52.9564L108.668 52.1335C108.909 52.0664 109.148 52.2477 109.148 52.498Z"></path>
<path fill="#572703" d="M66.0587 142.652L55.0701 113.838L67.8569 108.962L79.0335 138.268C81.3112 144.241 78.9324 150.984 73.4114 154.206L49.6211 168.088L42.7241 156.268L66.0587 142.652Z" clip-rule="evenodd" fill-rule="evenodd"></path>
<path fill="#935A30" d="M77.0808 147.756L62.832 109.559L75.654 104.776L89.9421 143.078C90.4869 144.539 90.7659 146.085 90.7659 147.644V175.593H77.0808V147.756Z" clip-rule="evenodd" fill-rule="evenodd"></path>
<path fill="#929AA5" d="M46.6157 127.775L55.5732 107.743H76.9681L86.9245 127.775H46.6157Z"></path>
<path fill="#F8D33A" d="M55.5537 95.3524V107.79L76.9924 107.79V95.3524C76.9924 89.4323 72.1932 84.6331 66.2731 84.6331C60.3529 84.633 55.5537 89.4323 55.5537 95.3524Z"></path>
<path fill="#935A30" d="M75.6304 68.2719C78.4326 71.074 78.4326 75.6172 75.6304 78.4194C72.8283 81.2215 68.2851 81.2215 65.4829 78.4194C62.6808 75.6172 62.6808 71.074 65.4829 68.2719C68.2851 65.4697 72.8283 65.4697 75.6304 68.2719Z"></path>
<path fill="#F0B90B" d="M70.558 66.1705L70.558 80.5212C66.5959 80.5204 63.3843 77.3082 63.3843 73.3459C63.3843 69.3836 66.5959 66.1714 70.558 66.1705Z" clip-rule="evenodd" fill-rule="evenodd"></path>
<path fill="#F0B90B" d="M63.3811 73.0608L59.8884 69.5681L59.8878 69.5688C57.9593 67.6415 54.8337 67.6419 52.9057 69.5699C50.9773 71.4983 50.9773 74.6249 52.9057 76.5533C54.8341 78.4817 57.9606 78.4817 59.889 76.5533C59.9024 76.5399 59.9156 76.5265 59.9288 76.513L63.3811 73.0608Z" clip-rule="evenodd" fill-rule="evenodd"></path>
<path fill="#F8D33A" d="M31.3105 162.707L44.543 155.21L51.3862 167.063L46.2897 170.04L43.5214 183.857L37.416 173.282L31.3105 162.707Z"></path>
<path fill="#F8D33A" d="M77.0869 189.753L77.0869 174.547H90.7914L90.9101 180.444L101.556 189.753L77.0869 189.753Z"></path>
<path fill="#FAFAFA" d="M77.0869 172.653L90.8006 172.667V175.159L77.0869 175.145V172.653Z"></path>
<path fill="#FAFAFA" d="M44.5433 155.207L51.3888 167.064L49.2405 168.315L42.3897 156.429L44.5433 155.207Z"></path>
<path fill="#0B0E11" d="M171.603 165.721L157.81 154.241L148.671 165.13L154.245 170.216L152.977 173.001C151.345 176.585 151.494 180.728 153.379 184.186L154.483 186.211L171.603 165.721Z"></path>
<path fill="#D9D9D9" d="M148.669 165.13L157.808 154.237L163.58 159.045L154.246 170.218L148.669 165.13Z"></path>
<path fill="#929AA5" d="M125.897 40.7653H137.955V52.8238H125.897V40.7653Z"></path>
<path fill="#929AA5" d="M64.6426 40.7653H76.7011V52.8238H64.6426V40.7653Z"></path>
<path fill="#929AA5" d="M74.3809 21.9551H84.0569V31.6311H74.3809V21.9551Z"></path>
<path fill="#929AA5" d="M118.92 21.9551H128.596V31.6311H118.92V21.9551Z"></path>
<path fill="#929AA5" d="M100.785 10.2474L109.057 18.5199L100.785 26.7924L92.5122 18.5199L100.785 10.2474Z"></path>
<path fill="#CB8C54" d="M156.292 56.1653L151.631 57.1941L156.117 66.1398L164.374 63.2921L162.819 59.5595C161.753 56.9969 159.003 55.5671 156.292 56.1653Z"></path>
</svg>
