<svg xmlns="http://www.w3.org/2000/svg" fill="none" viewBox="0 0 200 200" height="200" width="200">
<g clip-path="url(#clip0_2893_20435)">
<path stroke-width="18.3782" stroke="#FFD4C3" d="M91.7356 149.367L51.4943 139.297C45.5494 137.809 43.9727 130.101 48.8559 126.398L86.9782 97.4927L105.534 97.2372"></path>
<path stroke-width="18.3782" stroke="#FFD4C3" d="M101.57 149.648L143.093 139.309C149.06 137.823 150.629 130.077 145.71 126.386L107.731 97.8888L89.1753 97.6333"></path>
<path stroke-width="23.0231" stroke="#929AA5" d="M128.403 114.047L104.818 96.0824L89.3761 96.3583L66.9146 113.204"></path>
<path fill="#F8D33A" d="M83.0649 71.0374V86.9445H111.644V71.0374C111.644 63.1456 105.246 56.748 97.3544 56.748C89.4625 56.748 83.0649 63.1456 83.0649 71.0374Z"></path>
<path fill="#FFD4C3" d="M102.643 70.189C99.2556 67.7882 98.4555 63.0955 100.856 59.7077C103.257 56.3199 107.95 55.5199 111.338 57.9208L137.142 76.208L152.229 55.6031L154.832 57.5085L155.489 56.9092L175.354 57.2673C175.738 57.2742 175.964 57.7018 175.754 58.0237L174.43 60.0508C173.089 62.1025 171.028 63.5762 168.653 64.1802L163.655 65.4513L149.163 85.2438C144.372 91.7863 135.218 93.2741 128.602 88.5856L102.643 70.189Z" clip-rule="evenodd" fill-rule="evenodd"></path>
<path stroke-linecap="round" stroke-width="4.8903" stroke="#FFD4C3" d="M156.965 53.5833L152.925 58.7975"></path>
<path fill="#FFD4C3" d="M90.7851 70.1949C94.1749 67.7969 94.9789 63.1049 92.5808 59.7151C90.1828 56.3253 85.4908 55.5213 82.101 57.9194L58.0049 74.9655L43.5404 54.4222L41.3815 55.9423L40.7748 55.3256L20.9205 54.6006C20.5362 54.5866 20.2868 55.0012 20.4793 55.3341L21.6912 57.4303C22.9178 59.552 24.8962 61.1359 27.2348 61.8685L31.2871 63.1379L45.8209 83.7796C50.5482 90.4937 59.8283 92.0945 66.5318 87.3522L90.7851 70.1949Z" clip-rule="evenodd" fill-rule="evenodd"></path>
<path stroke-linecap="round" stroke-width="4.8903" stroke="#FFD4C3" d="M39.562 52.9446L43.2693 58.4007"></path>
<path fill="#E6E8EA" d="M96.3586 169.365L96.3586 139.184L88.9001 139.184L88.9001 149.805L82.6948 157.515L89.4196 171C91.145 174.46 96.3586 173.232 96.3586 169.365Z"></path>
<path fill="#E6E8EA" d="M97.2894 169.435L97.2894 139.386L104.748 139.386L104.748 149.96L110.953 157.637L104.222 171.074C102.493 174.527 97.2894 173.296 97.2894 169.435Z"></path>
<path fill="#935A30" d="M106.032 31.3908L112.349 39.7788L83.9915 40.3754L90.5895 31.3908C97.2157 24.54 103.645 28.5363 106.032 31.3908Z"></path>
<path fill="#935A30" d="M98.3532 47.4259C99.6034 50.209 102.399 52.1471 105.648 52.1471C110.063 52.1471 113.641 48.5685 113.641 44.1541C113.641 39.7396 110.063 36.161 105.648 36.161C102.399 36.161 99.6034 38.0992 98.3532 40.8822C97.103 38.0992 94.307 36.161 91.0583 36.161C86.6439 36.161 83.0653 39.7396 83.0653 44.1541C83.0653 48.5685 86.6439 52.1471 91.0583 52.1471C94.307 52.1471 97.103 50.209 98.3532 47.4259Z" clip-rule="evenodd" fill-rule="evenodd"></path>
<circle fill="#FFD4C3" transform="matrix(-1 0 0 1 107.534 30.6821)" r="9.53577" cy="9.53577" cx="9.53577"></circle>
<mask height="20" width="20" y="30" x="88" maskUnits="userSpaceOnUse" style="mask-type:alpha" id="mask0_2893_20435">
<circle fill="#935A30" transform="matrix(4.21468e-08 -1.00051 -0.99949 -4.21468e-08 107.533 49.7542)" r="9.54061" cy="9.54061" cx="9.54061"></circle>
</mask>
<g mask="url(#mask0_2893_20435)">
<path fill="#935A30" d="M97.9764 36.6145C99.0708 38.7479 101.292 40.2078 103.855 40.2078C107.502 40.2078 110.458 37.2515 110.458 33.6048C110.458 29.9581 107.502 27.0018 103.855 27.0018C101.292 27.0018 99.0708 28.4616 97.9764 30.595C96.8819 28.4616 94.6603 27.0018 92.0977 27.0018C88.451 27.0018 85.4947 29.9581 85.4947 33.6048C85.4947 37.2515 88.451 40.2078 92.0977 40.2078C94.6603 40.2078 96.8819 38.7479 97.9764 36.6145Z" clip-rule="evenodd" fill-rule="evenodd"></path>
</g>
<path stroke-linejoin="round" stroke-linecap="square" stroke-width="15.0367" stroke="#F8D33A" d="M73.5116 73.2094L86.4376 64.0631L106.996 64.0631L122.254 74.8735"></path>
</g>
<defs>
<clipPath id="clip0_2893_20435">
<rect fill="white" height="200" width="200"></rect>
</clipPath>
</defs>
</svg>
