<svg xmlns="http://www.w3.org/2000/svg" fill="none" viewBox="0 0 310 310" height="310" width="310">
<path fill="#F0B90B" d="M96.2866 253.915L126.644 125.791L151.192 131.608L120.835 259.732L96.2866 253.915Z" clip-rule="evenodd" fill-rule="evenodd"></path>
<path fill="#F0B90B" d="M161.571 129.894L186.571 260.25L161.794 265.002L136.794 134.646L161.571 129.894Z" clip-rule="evenodd" fill-rule="evenodd"></path>
<path fill="#5E6673" d="M163.104 116.042V137.943H123.756V116.042C123.756 105.176 132.564 96.3677 143.43 96.3677C154.296 96.3677 163.104 105.176 163.104 116.042Z"></path>
<path fill="#E8A37D" d="M141.059 100.384C144.364 105.049 143.263 111.51 138.598 114.815L136.987 115.957L141.216 134.707L107.174 142.385C93.2958 145.515 85.1782 127.297 96.7855 119.071L126.628 97.9234C131.292 94.6179 137.753 95.7196 141.059 100.384Z" clip-rule="evenodd" fill-rule="evenodd"></path>
<path fill="#E8A37D" d="M156.523 116.839C151.855 113.539 150.746 107.079 154.046 102.411C157.346 97.7428 163.806 96.6336 168.474 99.9338L193.186 117.403L193.208 96.3568L197.547 96.3613L216.812 78.0089C217.068 77.7657 217.467 77.7606 217.728 77.9971L219.902 79.9634C224.802 84.397 225.761 91.7311 222.166 97.2757L213.897 110.028L213.881 125.115C213.867 138.667 198.58 146.57 187.515 138.748L156.523 116.839Z" clip-rule="evenodd" fill-rule="evenodd"></path>
<path fill="#E8A37D" d="M186.764 88.7728C185.452 90.0905 185.457 92.2217 186.775 93.5329L195.881 102.594C197.198 103.906 199.329 103.9 200.641 102.583C201.952 101.265 201.947 99.1339 200.629 97.8226L191.524 88.7612C190.206 87.45 188.075 87.4552 186.764 88.7728Z" clip-rule="evenodd" fill-rule="evenodd"></path>
<path fill="#5E6673" d="M166.675 98.673L187.17 113.147L175.226 130.058L156.653 116.941L135.201 116.751L117.812 129.437L105.61 112.711L125.01 98.5585C127.298 96.8893 130.063 96.0015 132.895 96.0266L159.188 96.2591C161.871 96.2829 164.483 97.125 166.675 98.673Z" clip-rule="evenodd" fill-rule="evenodd"></path>
<path fill="#E8A37D" d="M156.813 73.136C156.813 80.5863 150.773 86.6259 143.323 86.6259C135.873 86.6259 129.833 80.5863 129.833 73.136C129.833 65.6858 135.873 59.6461 143.323 59.6461C150.773 59.6461 156.813 65.6858 156.813 73.136Z"></path>
<path fill="#0B0E11" d="M156.812 73.135L129.832 73.135C129.832 65.6849 135.872 59.6456 143.322 59.6456C150.772 59.6456 156.812 65.6849 156.812 73.135Z" clip-rule="evenodd" fill-rule="evenodd"></path>
<path fill="#0B0E11" d="M166.229 288.14L159.005 250.438L184.749 250.438L188.961 269.861L211.628 288.489L166.229 288.14Z"></path>
<path fill="#0B0E11" d="M114.435 288.433L123.042 250.441L97.0851 250.441L92.5972 268.676L68.7481 288.487L114.435 288.433Z"></path>
<path fill="#E8A37D" d="M141.214 134.706L117.698 140.01C112.121 141.268 106.58 137.767 105.322 132.19C104.064 126.613 107.566 121.072 113.143 119.814L136.659 114.51L141.214 134.706Z" clip-rule="evenodd" fill-rule="evenodd"></path>
<path fill="#E8A37D" d="M153.481 112.113L132.042 115.853L127.754 122.17L135.681 135.928L144.964 133.921C152.158 132.365 156.776 125.331 155.343 118.112L154.258 112.646C154.187 112.287 153.842 112.05 153.481 112.113Z"></path>
<path fill="#E8A37D" d="M130.237 120.554C131.514 121.937 133.671 122.023 135.054 120.746L144.247 112.26C145.63 110.983 145.717 108.826 144.44 107.443C143.163 106.06 141.006 105.974 139.623 107.25L130.43 115.737C129.046 117.014 128.96 119.171 130.237 120.554Z" clip-rule="evenodd" fill-rule="evenodd"></path>
<path fill="#F8D33A" d="M200.856 26.9361C208.735 19.0864 221.509 19.0864 229.387 26.9361C237.266 34.7858 237.266 47.5127 229.387 55.3624L198.167 86.4674L166.947 55.3624C159.068 47.5127 159.068 34.7858 166.947 26.9361C174.826 19.0864 187.6 19.0864 195.478 26.9361L198.167 29.6148L200.856 26.9361Z" clip-rule="evenodd" fill-rule="evenodd"></path>
</svg>
