<svg xmlns="http://www.w3.org/2000/svg" fill="none" viewBox="0 0 200 200" height="200" width="200">
<mask height="72" width="155" y="116" x="27" maskUnits="userSpaceOnUse" style="mask-type:alpha" id="mask0_2893_20307">
<path fill="#5E6673" d="M27.7847 116.207H181.85V187.153H27.7847V116.207Z"></path>
</mask>
<g mask="url(#mask0_2893_20307)">
<path fill="#5E6673" d="M194.137 236.265C194.137 285.596 154.147 325.586 104.817 325.586C55.4863 325.586 15.4961 285.596 15.4961 236.265C15.4961 186.935 55.4863 146.945 104.817 146.945C154.147 146.945 194.137 186.935 194.137 236.265Z"></path>
</g>
<path fill="#E6E7EA" d="M52.23 76.6394C52.23 87.3387 43.5565 96.0122 32.8572 96.0122C22.1579 96.0122 13.4844 87.3387 13.4844 76.6394C13.4844 65.9401 22.1579 57.2666 32.8572 57.2666C43.5565 57.2666 52.23 65.9401 52.23 76.6394Z"></path>
<path fill="#E6E7EA" d="M186.515 48.6261C186.515 54.2013 181.996 58.7209 176.42 58.7209C170.845 58.7209 166.326 54.2013 166.326 48.6261C166.326 43.051 170.845 38.5314 176.42 38.5314C181.996 38.5314 186.515 43.051 186.515 48.6261Z"></path>
<path fill="#797979" d="M97.4582 38.6738C99.1974 38.6738 100.607 40.0837 100.607 41.8228C100.607 43.562 99.1974 44.9719 97.4582 44.9719C95.7191 44.9719 94.3092 43.562 94.3092 41.8228C94.3092 40.0837 95.7191 38.6738 97.4582 38.6738ZM101.354 41.8228C101.354 39.6713 99.6098 37.9271 97.4582 37.9271C95.3066 37.9271 93.5624 39.6713 93.5624 41.8228C93.5624 43.9744 95.3066 45.7186 97.4582 45.7186C99.6098 45.7186 101.354 43.9744 101.354 41.8228Z" clip-rule="evenodd" fill-rule="evenodd"></path>
<path fill="#F0B90B" d="M115.237 36.5436C115.281 36.534 115.324 36.5237 115.368 36.5129C118.109 35.8335 119.78 33.0606 119.101 30.3197C118.421 27.5787 115.649 25.9075 112.908 26.587C111.301 26.9854 110.061 28.1033 109.448 29.5125L109.423 29.4817L106.082 39.027L115.255 36.565L115.237 36.5436Z" clip-rule="evenodd" fill-rule="evenodd"></path>
<path fill="#935A30" d="M108.771 34.3741C112.597 36.5831 113.906 41.4788 111.695 45.3088C109.484 49.1389 104.589 50.453 100.763 48.2439C96.9372 46.0349 95.6281 41.1393 97.8393 37.3092C100.051 33.4791 104.945 32.165 108.771 34.3741Z"></path>
<mask height="17" width="17" y="33" x="96" maskUnits="userSpaceOnUse" style="mask-type:alpha" id="mask1_2893_20307">
<path fill="#935A30" d="M108.769 34.3722C112.595 36.5813 113.904 41.4769 111.693 45.307C109.482 49.1371 104.588 50.4512 100.761 48.2421C96.9352 46.0331 95.6261 41.1374 97.8374 37.3074C100.049 33.4773 104.943 32.1632 108.769 34.3722Z"></path>
</mask>
<g mask="url(#mask1_2893_20307)">
<path fill="#F0B90B" d="M109.057 36.5664C107.18 37.2855 104.976 36.9537 103.375 35.5198C101.097 33.4784 100.904 29.9764 102.946 27.6978C104.987 25.4193 108.489 25.2271 110.768 27.2685C112.368 28.7024 112.939 30.8571 112.43 32.8021C114.308 32.083 116.512 32.4148 118.112 33.8488C120.391 35.8902 120.583 39.3922 118.542 41.6707C116.5 43.9492 112.998 44.1415 110.72 42.1001C109.119 40.6661 108.548 38.5114 109.057 36.5664Z" clip-rule="evenodd" fill-rule="evenodd"></path>
</g>
<path fill="#797979" d="M111.411 41.5389C113.15 41.5389 114.56 42.9488 114.56 44.688C114.56 46.4271 113.15 47.837 111.411 47.837C109.672 47.837 108.262 46.4271 108.262 44.688C108.262 42.9488 109.672 41.5389 111.411 41.5389ZM115.307 44.688C115.307 42.5364 113.562 40.7922 111.411 40.7922C109.259 40.7922 107.515 42.5364 107.515 44.688C107.515 46.8395 109.259 48.5837 111.411 48.5837C113.562 48.5837 115.307 46.8395 115.307 44.688Z" clip-rule="evenodd" fill-rule="evenodd"></path>
<path fill="#935A30" d="M54.5086 19.7195L66.1553 28.2026L68.4752 32.7691L60.4263 36.7536L54.7111 31.7896C52.1217 29.5406 51.398 25.8164 52.9567 22.7613L54.5086 19.7195Z"></path>
<path fill="#935A30" d="M60.0807 20.945C60.8688 20.3022 62.0288 20.4201 62.6716 21.2082L66.091 25.4008C66.7338 26.1889 66.616 27.3489 65.8278 27.9917C65.0397 28.6345 63.8797 28.5166 63.237 27.7285L59.8175 23.5359C59.1748 22.7478 59.2926 21.5878 60.0807 20.945Z" clip-rule="evenodd" fill-rule="evenodd"></path>
<path fill="#935A30" d="M116.24 108.33L115.766 78.4298L100.803 78.6667L101.287 109.236C101.411 117.036 107.769 123.295 115.57 123.295L143.582 123.295L143.582 108.33L116.24 108.33Z" clip-rule="evenodd" fill-rule="evenodd"></path>
<path fill="#F3C21B" d="M165.473 108.33L140.802 108.33L140.802 123.294L155.308 123.424L165.473 135.049L165.473 121.689L165.473 108.33Z"></path>
<path fill="#935A30" d="M94.6469 120.501L110.251 78.6711L96.2297 73.4407L80.5827 115.386C79.9869 116.983 79.6818 118.674 79.6818 120.379V150.986H94.6469V120.501Z" clip-rule="evenodd" fill-rule="evenodd"></path>
<path fill="#929AA5" d="M83.2109 108.339L94.9448 76.6068H118.106L126.235 108.339H83.2109Z"></path>
<path fill="#F3C21B" d="M94.647 166.353V141.691H79.6877L79.5581 156.192L67.937 166.353L94.647 166.353Z"></path>
<path fill="#935A30" d="M104.794 65.7605C102.63 68.3579 98.7695 68.7089 96.172 66.5444L59.2005 35.7353C56.603 33.5707 56.252 29.7104 58.4166 27.1129C60.5811 24.5154 64.4414 24.1644 67.0389 26.329L104.01 57.1381C106.608 59.3026 106.959 63.163 104.794 65.7605Z" clip-rule="evenodd" fill-rule="evenodd"></path>
<path fill="#0B0E11" d="M118.124 62.9544V76.7324L94.9633 76.7324V62.9544C94.9633 56.5589 100.148 51.3743 106.543 51.3743C112.939 51.3742 118.124 56.5588 118.124 62.9544Z"></path>
<path fill="#935A30" d="M157.733 21.8518L155.395 16.7794L146.256 24.363L151.72 33.1971L155.739 30.0625C158.229 28.1203 159.054 24.7198 157.733 21.8518Z"></path>
<path fill="#935A30" d="M150.099 17.7991C149.271 17.3561 148.241 17.6684 147.798 18.4966L145.703 22.4135C145.26 23.2417 145.572 24.2722 146.4 24.7151C147.228 25.1581 148.259 24.8458 148.702 24.0176L150.797 20.1007C151.24 19.2725 150.927 18.2421 150.099 17.7991Z" clip-rule="evenodd" fill-rule="evenodd"></path>
<path fill="#935A30" d="M153.647 23.3792C151.423 20.8323 147.556 20.5703 145.009 22.794L108.134 54.9899C105.587 57.2136 105.325 61.081 107.549 63.628C109.772 66.1749 113.64 66.4369 116.187 64.2132L153.062 32.0173C155.609 29.7936 155.871 25.9262 153.647 23.3792Z" clip-rule="evenodd" fill-rule="evenodd"></path>
</svg>
